<?xml version="1.0" encoding="utf-8"?>
<!-- Generator: Adobe Illustrator 21.1.0, SVG Export Plug-In . SVG Version: 6.00 Build 0)  -->
<svg version="1.1" id="Layer_1" xmlns="http://www.w3.org/2000/svg" xmlns:xlink="http://www.w3.org/1999/xlink" x="0px" y="0px"
	 viewBox="0 0 600 600" style="enable-background:new 0 0 600 600;" xml:space="preserve">
<style type="text/css">
	.st0{fill:#212427;}
	.st1{fill:#007BFF;}
</style>
<g>
	<path class="st0" d="M370.1,397.4L205.6,232.9c4.9-11.7,7.6-24.5,7.6-37.9c0-54.3-44.1-98.4-98.4-98.4v8.8v28.5
		c34.7,0,62.6,28.9,61,64c-1.4,31.3-26.8,56.7-58.1,58.1c-35,1.6-64-26.3-64-61H25.2h-8.8c0,54.3,44.1,98.4,98.4,98.4
		c13.4,0,26.3-2.7,37.9-7.6l164.1,164.1c4.1,4.1,10.8,4.1,14.9,0l38.4-38.4C374,407.6,374,401.3,370.1,397.4z"/>
	<path class="st1" d="M153.1,285.8c-11.7,4.9-24.5,7.6-37.9,7.6c-52.3,0-95-40.7-98.2-92.2h-6.1c3.2,54.8,48.7,98.3,104.3,98.3
		c15.2,0,29.6-3.2,42.6-9L153.1,285.8z"/>
	<path class="st1" d="M123.5,134.5v5.5c26.6,4.2,46.9,27.2,46.9,55c0,30.7-24.9,55.6-55.6,55.6c-28.6,0-52.2-21.6-55.3-49.4H54
		c3.2,31.8,30.7,56.3,63.7,54.8c31.3-1.4,56.7-26.8,58.1-58.1C177.3,165.8,154,138.9,123.5,134.5z"/>
	<path class="st1" d="M314.7,448L314.7,448c-2.4,2.4-6.3,2.4-8.7,0L150.9,292.9l4.3-4.3L314.7,448z"/>
</g>
<g>
	<path class="st0" d="M288.3,156.9l164.5,164.5c11.7-4.9,24.5-7.6,37.9-7.6c54.3,0,98.4,44.1,98.4,98.4h-8.8h-28.5
		c0-34.7-28.9-62.6-64-61c-31.3,1.4-56.7,26.8-58.1,58.1c-1.6,35,26.3,64,61,64v28.5v8.8c-54.3,0-98.4-44.1-98.4-98.4
		c0-13.4,2.7-26.3,7.6-37.9L235.9,210.2c-4.1-4.1-4.1-10.8,0-14.9l38.4-38.4C278.1,153,284.4,153,288.3,156.9z"/>
	<path class="st1" d="M400,374c-4.9,11.7-7.6,24.5-7.6,37.9c0,52.3,40.7,95,92.2,98.2v6.1c-54.8-3.2-98.3-48.7-98.3-104.3
		c0-15.2,3.2-29.6,9-42.6L400,374z"/>
	<path class="st1" d="M551.2,403.5h-5.5c-4.2-26.6-27.2-46.9-55-46.9c-30.7,0-55.6,24.9-55.6,55.6c0,28.6,21.6,52.2,49.4,55.3v5.5
		c-31.8-3.2-56.3-30.7-54.8-63.7c1.4-31.3,26.8-56.7,58.1-58.1C520,349.7,546.9,373,551.2,403.5z"/>
	<path class="st1" d="M237.8,212.4L237.8,212.4c-2.4,2.4-2.4,6.3,0,8.7l155.1,155.1l4.3-4.3L237.8,212.4z"/>
</g>
</svg>
